Coordinates
version=1
nRows=26
nColumns=24
inDegrees=yes

Units are S.I. units (second, meters, Newtons, ...)
Angles are in degrees.

endheader
time	pelvis_tilt	pelvis_list	pelvis_rotation	pelvis_tx	pelvis_ty	pelvis_tz	hip_flexion_r	hip_adduction_r	hip_rotation_r	knee_angle_r	ankle_angle_r	subtalar_angle_r	mtp_angle_r	hip_flexion_l	hip_adduction_l	hip_rotation_l	knee_angle_l	ankle_angle_l	subtalar_angle_l	mtp_angle_l	lumbar_extension	lumbar_bending	lumbar_rotation
      2.44000000	     -5.31624674	      0.89728392	    360.04405736	      0.23109218	      1.39301404	     -1.02827140	     13.40149056	      1.92361573	     -0.63730810	    -11.97426158	     -0.85000160	     -6.42260784	      5.44175155	     15.58916760	      3.15856687	      4.91531227	    -52.38918296	     -3.77531036	     10.08216853	     40.14182350	     -9.54235374	      7.93105198	      4.31556469
      2.44500000	     -5.43570604	      0.92953165	    359.97571994	      0.23568537	      1.39332901	     -1.02783939	     13.15167666	      1.95567435	     -0.40506719	    -11.76891356	     -0.86711897	     -6.77881899	      5.46485535	     16.34126811	      3.12853506	      4.71978650	    -52.45033346	     -3.29848240	      9.93388655	     39.39765000	     -9.44428704	      7.84680026	      4.34814410
      2.45000000	     -5.45369593	      1.05018382	    359.91770372	      0.24046610	      1.39378196	     -1.02752130	     12.80217195	      1.87001165	     -0.20601564	    -11.62715986	     -0.71913217	     -6.83483278	      5.41698855	     16.85657066	      3.23799046	      4.62644875	    -52.29786231	     -2.77594911	      9.81064538	     38.56313215	     -9.43177416	      7.68408488	      4.40848485
      2.45500000	     -5.44429846	      1.25209092	    359.86171935	      0.24519278	      1.39427808	     -1.02712660	     12.45316407	      1.70873224	      0.06734853	    -11.53694629	     -0.58248622	     -6.99289549	      5.31066947	     17.31019545	      3.42241595	      4.50922266	    -52.01673800	     -2.48193587	      9.50405768	     38.21769257	     -9.45433197	      7.40197426	      4.46546027
      2.46000000	     -5.42954240	      1.42203034	    359.88179200	      0.24997819	      1.39475274	     -1.02687215	     12.04750232	      1.57447094	      0.33070984	    -11.36650098	     -0.50320838	     -7.36172170	      5.05076431	     17.77571766	      3.58674226	      4.43095544	    -51.71358478	     -2.15834155	      9.21242029	     37.79451819	     -9.46405990	      7.18826821	      4.45435468
      2.46500000	     -5.54056641	      1.55712374	    359.88767221	      0.25446656	      1.39493360	     -1.02648614	     11.80979216	      1.48864520	      0.62644281	    -11.22641711	     -0.39374125	     -7.70161003	      4.63680346	     18.46652501	      3.66475218	      4.26578867	    -51.50019378	     -1.77529748	      9.22255761	     37.36403407	     -9.39148454	      6.98504862	      4.46918487
      2.47000000	     -5.60707375	      1.70709466	    359.87376073	      0.25900808	      1.39516799	     -1.02602749	     11.51361468	      1.39154360	      0.86851589	    -11.05028084	     -0.35750688	     -8.03953658	      4.46514510	     19.07241757	      3.75490999	      4.07733738	    -51.20246659	     -1.54662566	      9.03769527	     37.10701479	     -9.35810366	      6.76886677	      4.47412186
      2.47500000	     -5.70017573	      1.78352993	    359.85161331	      0.26344928	      1.39535499	     -1.02565020	     11.25308380	      1.37803689	      1.20904036	    -10.86833770	     -0.44790287	     -8.61406269	      4.19102362	     19.67579435	      3.78486402	      3.93323269	    -50.84242461	     -1.21302427	      8.75153804	     36.73025123	     -9.30527630	      6.64999099	      4.51210058
      2.48000000	     -5.81652033	      1.88214700	    359.89038667	      0.26802353	      1.39550109	     -1.02537085	     10.99661516	      1.31762209	      1.42042533	    -10.66538355	     -0.51821339	     -9.08835778	      3.98617869	     20.25377303	      3.88413782	      3.90303732	    -50.40765066	     -0.72857439	      8.66385715	     35.94405908	     -9.21358278	      6.48116118	      4.44245171
      2.48500000	     -5.82297940	      2.04974220	    359.89104759	      0.27252226	      1.39586147	     -1.02505274	     10.62039671	      1.18935967	      1.55933690	    -10.45613356	     -0.53741872	     -9.43925191	      3.76523591	     20.66679686	      4.03423692	      3.81450208	    -49.83582693	     -0.37727376	      8.50517478	     35.39298345	     -9.23519805	      6.21522919	      4.40819641
      2.49000000	     -5.85372486	      2.23167774	    359.87459885	      0.27711768	      1.39608285	     -1.02484536	     10.29584497	      1.03504255	      1.68131101	    -10.30825126	     -0.43955209	     -9.63420785	      3.61777180	     21.07666850	      4.22007923	      3.75184533	    -49.20968651	     -0.11625524	      8.31947411	     34.94018229	     -9.24168079	      5.98492411	      4.43045358
      2.49500000	     -5.79870110	      2.40552307	    359.82109669	      0.28190066	      1.39636496	     -1.02450793	      9.85386418	      0.90056125	      1.89963263	    -10.16071041	     -0.29265936	     -9.82648142	      3.21782989	     21.38253121	      4.34135990	      3.58519545	    -48.57204164	      0.22874901	      8.30825404	     34.35345052	     -9.32543584	      5.75179823	      4.47960063
      2.50000000	     -5.94976598	      2.48120868	    359.88025022	      0.28640442	      1.39634349	     -1.02433659	      9.67054710	      0.84391208	      1.96037957	    -10.04597440	     -0.19842089	     -9.98375944	      3.01667755	     21.98869623	      4.41918857	      3.56834469	    -47.99059255	      0.44706799	      8.21532748	     33.77479955	     -9.20906670	      5.64280585	      4.44700272
      2.50500000	     -6.09448983	      2.58412838	    359.98558317	      0.29076842	      1.39630347	     -1.02431335	      9.50505697	      0.74397652	      2.02483622	     -9.96052578	     -0.08934728	    -10.18336059	      2.94787658	     22.57488885	      4.55663375	      3.62109226	    -47.32411379	      0.57207407	      8.09309312	     33.55982728	     -9.12291595	      5.49913410	      4.32792422
      2.51000000	     -6.20388405	      2.71193815	    360.02551775	      0.29518078	      1.39635308	     -1.02435070	      9.31230211	      0.61486462	      2.07281549	     -9.88876079	      0.05844077	    -10.31691089	      2.88265318	     23.06277924	      4.69325831	      3.58125254	    -46.54432265	      0.63353708	      7.90149238	     33.45254871	     -9.05058040	      5.35346734	      4.24642581
      2.51500000	     -6.28701055	      2.81043169	    360.04007529	      0.29977601	      1.39637701	     -1.02408790	      9.08055179	      0.53785220	      2.10106942	     -9.81677318	      0.22855312	    -10.40893871	      2.81245086	     23.47400692	      4.75895074	      3.50726520	    -45.69956474	      0.71196838	      7.74331064	     33.35939580	     -9.01874344	      5.17663495	      4.25839514
      2.52000000	     -6.32243735	      2.89467380	    360.10481504	      0.30428151	      1.39642868	     -1.02407439	      8.77666671	      0.45516883	      2.12972363	     -9.70453656	      0.36043341	    -10.55755117	      2.75178639	     23.81165373	      4.86704249	      3.53664468	    -44.79917608	      0.74564752	      7.43177426	     33.28180556	     -9.02924844	      5.05886167	      4.22554861
      2.52500000	     -6.35159492	      2.99400327	    360.13854410	      0.30880091	      1.39644713	     -1.02403448	      8.48440128	      0.35663002	      2.25356374	     -9.64845605	      0.58065198	    -10.70490911	      2.64498839	     24.13795607	      4.96058511	      3.50262822	    -43.89564582	      0.91891133	      7.42542965	     32.77765172	     -9.02788102	      4.92124166	      4.19128344
      2.53000000	     -6.44670125	      3.09848448	    360.21713638	      0.31324395	      1.39633232	     -1.02403376	      8.30069697	      0.24760642	      2.30930229	     -9.66741081	      0.81238719	    -10.82906395	      2.59515769	     24.50851247	      5.11552900	      3.60914009	    -42.90954534	      0.92918223	      7.26010407	     32.53727888	     -8.99831738	      4.78797887	      4.09982526
      2.53500000	     -6.54464911	      3.15590114	    360.29621800	      0.31770632	      1.39618324	     -1.02388549	      8.11503522	      0.18447240	      2.15157771	     -9.66250654	      1.11593155	    -10.63516388	      2.56083944	     24.88091345	      5.19510765	      3.68540777	    -41.88034036	      0.92236783	      6.93546552	     32.60315628	     -8.98284494	      4.68806923	      4.06474426
      2.54000000	     -6.61601389	      3.20675193	    360.32656017	      0.32213890	      1.39606485	     -1.02369441	      7.88363709	      0.14316561	      2.08116884	     -9.59514214	      1.28652717	    -10.68785398	      2.61735993	     25.19787717	      5.23075753	      3.70013892	    -40.80600886	      0.86036989	      6.86748815	     32.55254380	     -8.99606307	      4.58260724	      4.00541696
      2.54500000	     -6.64106905	      3.29205926	    360.37742640	      0.32666276	      1.39601502	     -1.02365765	      7.60905634	      0.06194929	      2.11823996	     -9.56794828	      1.43102060	    -10.87558119	      2.62684639	     25.40938406	      5.33676952	      3.76969772	    -39.62633735	      0.75268166	      6.63208716	     32.48318657	     -9.01777469	      4.47092415	      3.95349539
      2.55000000	     -6.70580693	      3.33341817	    360.46665179	      0.33112994	      1.39588482	     -1.02380508	      7.41641490	      0.01006332	      2.13568928	     -9.60542654	      1.55998792	    -11.02540014	      2.67918025	     25.65828919	      5.40971829	      3.87025049	    -38.41942732	      0.68238704	      6.61637679	     32.36666870	     -8.99580891	      4.42206032	      3.84500696
      2.55500000	     -6.71248423	      3.41109517	    360.47505554	      0.33565823	      1.39578376	     -1.02379941	      7.15061328	     -0.06919672	      2.19759597	     -9.62099747	      1.74047477	    -11.09896820	      2.80118993	     25.80894469	      5.47257004	      3.86855332	    -37.16921531	      0.53389101	      6.49036850	     32.08678693	     -9.06666939	      4.31300941	      3.83562707
      2.56000000	     -6.84877651	      3.49897604	    360.52372684	      0.34025092	      1.39541693	     -1.02375430	      7.01614593	     -0.15915945	      2.19089774	     -9.63582905	      2.01711291	    -11.12877343	      2.83079118	     26.08676875	      5.56167003	      3.91742296	    -35.90289997	      0.46397674	      6.37841973	     31.71932898	     -8.99619516	      4.16636651	      3.81665027
      2.56500000	     -6.93020952	      3.56535080	    360.57192543	      0.34485738	      1.39508881	     -1.02357671	      6.81762815	     -0.22402092	      2.11895096	     -9.65334794	      2.30457424	    -10.98990552	      2.93533548	     26.27049644	      5.61475505	      3.96337104	    -34.58850801	      0.47724383	      6.29802672	     31.37717472	     -8.97841004	      4.01345100	      3.82805083
